<svg width="49" height="63" viewBox="0 0 49 63" fill="none" xmlns="http://www.w3.org/2000/svg">
<path d="M45.5 59.85V63C47.433 63 49 61.5897 49 59.85H45.5ZM3.50002 59.85H1.7846e-05C1.7846e-05 61.5897 1.56704 63 3.50002 63V59.85ZM14 12.6C12.067 12.6 10.5 14.0103 10.5 15.75C10.5 17.4897 12.067 18.9 14 18.9V12.6ZM17.5 18.9C19.4331 18.9 21 17.4897 21 15.75C21 14.0103 19.4331 12.6 17.5 12.6V18.9ZM14 22.05C12.067 22.05 10.5 23.4603 10.5 25.2C10.5 26.9398 12.067 28.35 14 28.35V22.05ZM17.5 28.35C19.4331 28.35 21 26.9398 21 25.2C21 23.4603 19.4331 22.05 17.5 22.05V28.35ZM31.5 22.05C29.5669 22.05 28 23.4603 28 25.2C28 26.9398 29.5669 28.35 31.5 28.35V22.05ZM35 28.35C36.933 28.35 38.5 26.9398 38.5 25.2C38.5 23.4603 36.933 22.05 35 22.05V28.35ZM31.5 31.5C29.5669 31.5 28 32.9103 28 34.65C28 36.3898 29.5669 37.8 31.5 37.8V31.5ZM35 37.8C36.933 37.8 38.5 36.3898 38.5 34.65C38.5 32.9103 36.933 31.5 35 31.5V37.8ZM14 31.5C12.067 31.5 10.5 32.9103 10.5 34.65C10.5 36.3898 12.067 37.8 14 37.8V31.5ZM17.5 37.8C19.4331 37.8 21 36.3898 21 34.65C21 32.9103 19.4331 31.5 17.5 31.5V37.8ZM31.5 12.6C29.5669 12.6 28 14.0103 28 15.75C28 17.4897 29.5669 18.9 31.5 18.9V12.6ZM35 18.9C36.933 18.9 38.5 17.4897 38.5 15.75C38.5 14.0103 36.933 12.6 35 12.6V18.9ZM9.10001 6.30001H39.9V1.60753e-05H9.10001V6.30001ZM42 8.19001V59.85H49V8.19001H42ZM45.5 56.7H3.50002V63H45.5V56.7ZM7.00001 59.85V8.19001H1.7846e-05V59.85H7.00001ZM39.9 6.30001C40.9377 6.30001 41.5058 6.30247 41.9139 6.33246C42.281 6.35946 42.2012 6.39231 42 6.30001L45.178 0.686684C44.2281 0.251039 43.2838 0.112219 42.4837 0.0534082C41.7245 -0.00244126 40.8222 1.60753e-05 39.9 1.60753e-05V6.30001ZM49 8.19001C49 7.35989 49.0028 6.54789 48.9408 5.86459C48.8754 5.14453 48.721 4.29485 48.237 3.43988L42 6.30001C41.8974 6.11886 41.9338 6.04713 41.9639 6.3776C41.9972 6.74486 42 7.25594 42 8.19001H49ZM42 6.30001L48.237 3.43988C47.566 2.25447 46.495 1.29067 45.178 0.686684L42 6.30001ZM9.10001 1.60753e-05C8.17766 1.60753e-05 7.27543 -0.00244126 6.51621 0.0534082C5.71614 0.112219 4.77205 0.251039 3.82209 0.686684L7.00001 6.30001C6.79873 6.39231 6.71903 6.35946 7.08622 6.33246C7.49428 6.30247 8.06216 6.30001 9.10001 6.30001V1.60753e-05ZM7.00001 8.19001C7.00001 7.25594 7.00274 6.74486 7.03606 6.3776C7.06606 6.04713 7.10256 6.11886 7.00001 6.30001L0.762982 3.43988C0.278932 4.29485 0.124688 5.14453 0.0593433 5.86459C-0.0027117 6.54789 1.7846e-05 7.35989 1.7846e-05 8.19001H7.00001ZM3.82209 0.686684C2.50493 1.29067 1.43407 2.25444 0.762982 3.43988L7.00001 6.30001L3.82209 0.686684ZM14 18.9H17.5V12.6H14V18.9ZM14 28.35H17.5V22.05H14V28.35ZM31.5 28.35H35V22.05H31.5V28.35ZM31.5 37.8H35V31.5H31.5V37.8ZM14 37.8H17.5V31.5H14V37.8ZM31.5 18.9H35V12.6H31.5V18.9ZM28 50.4V59.85H35V50.4H28ZM21 59.85V50.4H14V59.85H21ZM24.5 47.25C26.433 47.25 28 48.6603 28 50.4H35C35 45.1808 30.2991 40.95 24.5 40.95V47.25ZM24.5 40.95C18.7009 40.95 14 45.1808 14 50.4H21C21 48.6603 22.567 47.25 24.5 47.25V40.95Z" fill="white"/>
</svg>
